<svg xmlns="http://www.w3.org/2000/svg" version="1.1" xmlns:xlink="http://www.w3.org/1999/xlink" width="1000" height="1000"><g clip-path="url(#SvgjsClipPath1031)"><rect width="1000" height="1000" fill="#ffffff"></rect><g transform="matrix(16.666666666666668,0,0,16.666666666666668,100,100)"><svg xmlns="http://www.w3.org/2000/svg" width="48" height="48" viewBox="0 0 48 48" fill="none"><path d="M24 42C14.0589 42 6 33.9411 6 24C6 14.0589 14.0589 6 24 6C33.9411 6 42 14.0589 42 24C42 33.9411 33.9411 42 24 42Z" fill="white" stroke="#333333" stroke-width="2" stroke-linecap="round" stroke-linejoin="round"></path><path fill-rule="evenodd" clip-rule="evenodd" d="M24 5C34.4934 5 43 13.5066 43 24C43 24.5523 42.5523 25 42 25H6C5.44772 25 5 24.5523 5 24C5 13.5066 13.5066 5 24 5Z" fill="#ED1B24"></path><path d="M24 30C20.6863 30 18 27.3137 18 24C18 20.6863 20.6863 18 24 18C27.3137 18 30 20.6863 30 24C30 27.3137 27.3137 30 24 30Z" fill="white"></path><path fill-rule="evenodd" clip-rule="evenodd" d="M24 5C34.4934 5 43 13.5066 43 24C43 34.4934 34.4934 43 24 43C13.5066 43 5 34.4934 5 24C5 13.5066 13.5066 5 24 5ZM7.03027 25C7.54793 33.9233 14.9469 41 24 41C33.0531 41 40.4521 33.9233 40.9697 25H30.9277C30.4424 28.3922 27.5264 31 24 31C20.4736 31 17.5576 28.3922 17.0723 25H7.03027ZM24 19C21.2386 19 19 21.2386 19 24C19 26.7614 21.2386 29 24 29C26.7614 29 29 26.7614 29 24C29 21.2386 26.7614 19 24 19ZM24 7C14.9469 7 7.54793 14.0767 7.03027 23H17.0723C17.5576 19.6078 20.4736 17 24 17C27.5264 17 30.4424 19.6078 30.9277 23H40.9697C40.4521 14.0767 33.0531 7 24 7Z" fill="#333333"></path></svg></g></g><defs><clipPath id="SvgjsClipPath1031"><rect width="1000" height="1000" x="0" y="0" rx="350" ry="350"></rect></clipPath></defs></svg>