<svg width="139" height="38" viewBox="0 0 139 38" fill="none" xmlns="http://www.w3.org/2000/svg">
<path d="M19 37C9.05887 37 1 28.9411 1 19C1 9.05887 9.05887 1 19 1C28.9411 1 37 9.05887 37 19C37 28.9411 28.9411 37 19 37Z" fill="white"/>
<path fill-rule="evenodd" clip-rule="evenodd" d="M19 0C29.4934 0 38 8.50659 38 19C38 19.5523 37.5523 20 37 20H1C0.447715 20 0 19.5523 0 19C0 8.50659 8.50659 0 19 0Z" fill="#ED1B24"/>
<path d="M19 25C15.6863 25 13 22.3137 13 19C13 15.6863 15.6863 13 19 13C22.3137 13 25 15.6863 25 19C25 22.3137 22.3137 25 19 25Z" fill="white"/>
<path fill-rule="evenodd" clip-rule="evenodd" d="M19 0C29.4934 0 38 8.50659 38 19C38 29.4934 29.4934 38 19 38C8.50659 38 0 29.4934 0 19C0 8.50659 8.50659 0 19 0ZM2.03027 20C2.54793 28.9233 9.94688 36 19 36C28.0531 36 35.4521 28.9233 35.9697 20H25.9277C25.4424 23.3922 22.5264 26 19 26C15.4736 26 12.5576 23.3922 12.0723 20H2.03027ZM19 14C16.2386 14 14 16.2386 14 19C14 21.7614 16.2386 24 19 24C21.7614 24 24 21.7614 24 19C24 16.2386 21.7614 14 19 14ZM19 2C9.94688 2 2.54793 9.07666 2.03027 18H12.0723C12.5576 14.6078 15.4736 12 19 12C22.5264 12 25.4424 14.6078 25.9277 18H35.9697C35.4521 9.07666 28.0531 2 19 2Z" fill="#333333"/>
<path d="M127.133 27.2559L132.029 20.3679L135.485 15.2559H137.765L133.205 21.7359L129.461 27.2559H127.133ZM135.749 27.2559L132.053 21.7359L127.445 15.2559H129.725L133.205 20.3679L138.053 27.2559H135.749Z" fill="#333333"/>
<path d="M120.845 27.5438C119.677 27.5438 118.645 27.2798 117.749 26.7518C116.853 26.2078 116.149 25.4638 115.637 24.5198C115.141 23.5758 114.893 22.4878 114.893 21.2558C114.893 20.0238 115.141 18.9358 115.637 17.9918C116.149 17.0478 116.845 16.3118 117.725 15.7838C118.621 15.2398 119.645 14.9678 120.797 14.9678C121.917 14.9678 122.885 15.2478 123.701 15.8078C124.517 16.3518 125.149 17.1198 125.597 18.1118C126.045 19.1038 126.269 20.2718 126.269 21.6158H116.357L116.837 21.2078C116.837 22.1678 117.005 22.9918 117.341 23.6798C117.693 24.3678 118.181 24.8958 118.805 25.2638C119.429 25.6158 120.141 25.7918 120.941 25.7918C121.789 25.7918 122.501 25.5918 123.077 25.1918C123.669 24.7918 124.125 24.2638 124.445 23.6078L126.101 24.4478C125.797 25.0718 125.389 25.6158 124.877 26.0798C124.381 26.5438 123.789 26.9038 123.101 27.1598C122.429 27.4158 121.677 27.5438 120.845 27.5438ZM116.957 20.3918L116.453 20.0078H124.733L124.229 20.4158C124.229 19.6478 124.077 18.9838 123.773 18.4238C123.469 17.8638 123.061 17.4318 122.549 17.1278C122.037 16.8238 121.445 16.6718 120.773 16.6718C120.117 16.6718 119.493 16.8238 118.901 17.1278C118.325 17.4318 117.853 17.8638 117.485 18.4238C117.133 18.9678 116.957 19.6238 116.957 20.3918Z" fill="#333333"/>
<path d="M110.406 27.2561L110.31 25.0241V10.4561H112.23V27.2561H110.406ZM106.254 27.5441C105.182 27.5441 104.238 27.2801 103.422 26.7521C102.606 26.2241 101.966 25.4881 101.502 24.5441C101.054 23.5841 100.83 22.4881 100.83 21.2561C100.83 20.0081 101.054 18.9121 101.502 17.9681C101.966 17.0241 102.606 16.2881 103.422 15.7601C104.238 15.2321 105.182 14.9681 106.254 14.9681C107.262 14.9681 108.142 15.2321 108.894 15.7601C109.662 16.2881 110.254 17.0241 110.67 17.9681C111.086 18.9121 111.294 20.0081 111.294 21.2561C111.294 22.4881 111.086 23.5841 110.67 24.5441C110.254 25.4881 109.662 26.2241 108.894 26.7521C108.142 27.2801 107.262 27.5441 106.254 27.5441ZM106.686 25.7921C107.39 25.7921 108.014 25.6001 108.558 25.2161C109.102 24.8321 109.526 24.2961 109.83 23.6081C110.15 22.9201 110.31 22.1361 110.31 21.2561C110.31 20.3761 110.15 19.5921 109.83 18.9041C109.526 18.2161 109.102 17.6801 108.558 17.2961C108.014 16.9121 107.382 16.7201 106.662 16.7201C105.91 16.7201 105.238 16.9121 104.646 17.2961C104.07 17.6801 103.614 18.2161 103.278 18.9041C102.942 19.5921 102.774 20.3761 102.774 21.2561C102.774 22.1361 102.942 22.9201 103.278 23.6081C103.614 24.2961 104.078 24.8321 104.67 25.2161C105.262 25.6001 105.934 25.7921 106.686 25.7921Z" fill="#333333"/>
<path d="M93.6805 27.5438C92.5125 27.5438 91.4805 27.2798 90.5845 26.7518C89.6885 26.2078 88.9845 25.4638 88.4725 24.5198C87.9765 23.5758 87.7285 22.4878 87.7285 21.2558C87.7285 20.0238 87.9765 18.9358 88.4725 17.9918C88.9845 17.0478 89.6805 16.3118 90.5605 15.7838C91.4565 15.2398 92.4805 14.9678 93.6325 14.9678C94.7525 14.9678 95.7205 15.2478 96.5365 15.8078C97.3525 16.3518 97.9845 17.1198 98.4325 18.1118C98.8805 19.1038 99.1045 20.2718 99.1045 21.6158H89.1925L89.6725 21.2078C89.6725 22.1678 89.8405 22.9918 90.1765 23.6798C90.5285 24.3678 91.0165 24.8958 91.6405 25.2638C92.2645 25.6158 92.9765 25.7918 93.7765 25.7918C94.6245 25.7918 95.3365 25.5918 95.9125 25.1918C96.5045 24.7918 96.9605 24.2638 97.2805 23.6078L98.9365 24.4478C98.6325 25.0718 98.2245 25.6158 97.7125 26.0798C97.2165 26.5438 96.6245 26.9038 95.9365 27.1598C95.2645 27.4158 94.5125 27.5438 93.6805 27.5438ZM89.7925 20.3918L89.2885 20.0078H97.5685L97.0645 20.4158C97.0645 19.6478 96.9125 18.9838 96.6085 18.4238C96.3045 17.8638 95.8965 17.4318 95.3845 17.1278C94.8725 16.8238 94.2805 16.6718 93.6085 16.6718C92.9525 16.6718 92.3285 16.8238 91.7365 17.1278C91.1605 17.4318 90.6885 17.8638 90.3205 18.4238C89.9685 18.9678 89.7925 19.6238 89.7925 20.3918Z" fill="#333333"/>
<path d="M78.9059 23.3921L77.6819 22.0721L84.0659 15.2561H86.4899L78.9059 23.3921ZM77.0339 27.2561V10.4561H78.9539V27.2561H77.0339ZM84.5939 27.2561L80.0339 20.3681L81.2819 19.0241L86.9699 27.2561H84.5939Z" fill="#333333"/>
<path d="M68.416 27.5438C67.248 27.5438 66.208 27.2798 65.296 26.7518C64.4 26.2078 63.696 25.4638 63.184 24.5198C62.672 23.5758 62.416 22.4878 62.416 21.2558C62.416 20.0238 62.664 18.9358 63.16 17.9918C63.672 17.0478 64.376 16.3118 65.272 15.7838C66.184 15.2398 67.216 14.9678 68.368 14.9678C69.552 14.9678 70.592 15.2398 71.488 15.7838C72.4 16.3118 73.104 17.0478 73.6 17.9918C74.112 18.9358 74.368 20.0238 74.368 21.2558C74.368 22.4878 74.112 23.5758 73.6 24.5198C73.104 25.4638 72.408 26.2078 71.512 26.7518C70.616 27.2798 69.584 27.5438 68.416 27.5438ZM68.416 25.7678C69.216 25.7678 69.912 25.5758 70.504 25.1918C71.096 24.8078 71.56 24.2798 71.896 23.6078C72.248 22.9358 72.424 22.1518 72.424 21.2558C72.424 20.3598 72.248 19.5758 71.896 18.9038C71.56 18.2318 71.088 17.7038 70.48 17.3198C69.872 16.9358 69.168 16.7438 68.368 16.7438C67.584 16.7438 66.888 16.9358 66.28 17.3198C65.688 17.7038 65.216 18.2318 64.864 18.9038C64.528 19.5758 64.36 20.3598 64.36 21.2558C64.36 22.1358 64.528 22.9198 64.864 23.6078C65.216 24.2798 65.696 24.8078 66.304 25.1918C66.928 25.5758 67.632 25.7678 68.416 25.7678Z" fill="#333333"/>
<path d="M50 27.2561V10.4561H55.472C56.56 10.4561 57.52 10.6801 58.352 11.1281C59.2 11.5761 59.856 12.2001 60.32 13.0001C60.8 13.8001 61.04 14.7281 61.04 15.7841C61.04 16.8081 60.824 17.7201 60.392 18.5201C59.96 19.3201 59.368 19.9521 58.616 20.4161C57.864 20.8641 56.992 21.0881 56 21.0881H52.04V27.2561H50ZM52.04 19.2401H56C56.88 19.2401 57.6 18.9201 58.16 18.2801C58.736 17.6241 59.024 16.7921 59.024 15.7841C59.024 14.7441 58.688 13.9041 58.016 13.2641C57.344 12.6241 56.488 12.3041 55.448 12.3041H52.04V19.2401Z" fill="#333333"/>
</svg>
