<svg width="139" height="38" viewBox="0 0 139 38" fill="none" xmlns="http://www.w3.org/2000/svg">
<path d="M19 37C9.05887 37 1 28.9411 1 19C1 9.05887 9.05887 1 19 1C28.9411 1 37 9.05887 37 19C37 28.9411 28.9411 37 19 37Z" fill="white"/>
<path fill-rule="evenodd" clip-rule="evenodd" d="M19 0C29.4934 0 38 8.50659 38 19C38 19.5523 37.5523 20 37 20H1C0.447715 20 0 19.5523 0 19C0 8.50659 8.50659 0 19 0Z" fill="#ED1B24"/>
<path d="M19 25C15.6863 25 13 22.3137 13 19C13 15.6863 15.6863 13 19 13C22.3137 13 25 15.6863 25 19C25 22.3137 22.3137 25 19 25Z" fill="white"/>
<path fill-rule="evenodd" clip-rule="evenodd" d="M19 0C29.4934 0 38 8.50659 38 19C38 29.4934 29.4934 38 19 38C8.50659 38 0 29.4934 0 19C0 8.50659 8.50659 0 19 0ZM2.03027 20C2.54793 28.9233 9.94688 36 19 36C28.0531 36 35.4521 28.9233 35.9697 20H25.9277C25.4424 23.3922 22.5264 26 19 26C15.4736 26 12.5576 23.3922 12.0723 20H2.03027ZM19 14C16.2386 14 14 16.2386 14 19C14 21.7614 16.2386 24 19 24C21.7614 24 24 21.7614 24 19C24 16.2386 21.7614 14 19 14ZM19 2C9.94688 2 2.54793 9.07666 2.03027 18H12.0723C12.5576 14.6078 15.4736 12 19 12C22.5264 12 25.4424 14.6078 25.9277 18H35.9697C35.4521 9.07666 28.0531 2 19 2Z" fill="#333333"/>
<path d="M127.156 27.2559L132.052 20.3679L135.508 15.2559H137.788L133.228 21.7359L129.484 27.2559H127.156ZM135.772 27.2559L132.076 21.7359L127.468 15.2559H129.748L133.228 20.3679L138.076 27.2559H135.772Z" fill="#333333"/>
<path d="M120.868 27.5438C119.7 27.5438 118.668 27.2798 117.772 26.7518C116.876 26.2078 116.172 25.4638 115.66 24.5198C115.164 23.5758 114.916 22.4878 114.916 21.2558C114.916 20.0238 115.164 18.9358 115.66 17.9918C116.172 17.0478 116.868 16.3118 117.748 15.7838C118.644 15.2398 119.668 14.9678 120.82 14.9678C121.94 14.9678 122.908 15.2478 123.724 15.8078C124.54 16.3518 125.172 17.1198 125.62 18.1118C126.068 19.1038 126.292 20.2718 126.292 21.6158H116.38L116.86 21.2078C116.86 22.1678 117.028 22.9918 117.364 23.6798C117.716 24.3678 118.204 24.8958 118.828 25.2638C119.452 25.6158 120.164 25.7918 120.964 25.7918C121.812 25.7918 122.524 25.5918 123.1 25.1918C123.692 24.7918 124.148 24.2638 124.468 23.6078L126.124 24.4478C125.82 25.0718 125.412 25.6158 124.9 26.0798C124.404 26.5438 123.812 26.9038 123.124 27.1598C122.452 27.4158 121.7 27.5438 120.868 27.5438ZM116.98 20.3918L116.476 20.0078H124.756L124.252 20.4158C124.252 19.6478 124.1 18.9838 123.796 18.4238C123.492 17.8638 123.084 17.4318 122.572 17.1278C122.06 16.8238 121.468 16.6718 120.796 16.6718C120.14 16.6718 119.516 16.8238 118.924 17.1278C118.348 17.4318 117.876 17.8638 117.508 18.4238C117.156 18.9678 116.98 19.6238 116.98 20.3918Z" fill="#333333"/>
<path d="M110.43 27.2561L110.334 25.0241V10.4561H112.254V27.2561H110.43ZM106.278 27.5441C105.206 27.5441 104.262 27.2801 103.446 26.7521C102.63 26.2241 101.99 25.4881 101.526 24.5441C101.078 23.5841 100.854 22.4881 100.854 21.2561C100.854 20.0081 101.078 18.9121 101.526 17.9681C101.99 17.0241 102.63 16.2881 103.446 15.7601C104.262 15.2321 105.206 14.9681 106.278 14.9681C107.286 14.9681 108.166 15.2321 108.918 15.7601C109.686 16.2881 110.278 17.0241 110.694 17.9681C111.11 18.9121 111.318 20.0081 111.318 21.2561C111.318 22.4881 111.11 23.5841 110.694 24.5441C110.278 25.4881 109.686 26.2241 108.918 26.7521C108.166 27.2801 107.286 27.5441 106.278 27.5441ZM106.71 25.7921C107.414 25.7921 108.038 25.6001 108.582 25.2161C109.126 24.8321 109.55 24.2961 109.854 23.6081C110.174 22.9201 110.334 22.1361 110.334 21.2561C110.334 20.3761 110.174 19.5921 109.854 18.9041C109.55 18.2161 109.126 17.6801 108.582 17.2961C108.038 16.9121 107.406 16.7201 106.686 16.7201C105.934 16.7201 105.262 16.9121 104.67 17.2961C104.094 17.6801 103.638 18.2161 103.302 18.9041C102.966 19.5921 102.798 20.3761 102.798 21.2561C102.798 22.1361 102.966 22.9201 103.302 23.6081C103.638 24.2961 104.102 24.8321 104.694 25.2161C105.286 25.6001 105.958 25.7921 106.71 25.7921Z" fill="#333333"/>
<path d="M93.6805 27.5441C92.5125 27.5441 91.4805 27.2801 90.5845 26.7521C89.6885 26.2081 88.9845 25.4641 88.4725 24.5201C87.9765 23.5761 87.7285 22.4881 87.7285 21.2561C87.7285 20.0241 87.9765 18.9361 88.4725 17.9921C88.9845 17.0481 89.6805 16.3121 90.5605 15.7841C91.4565 15.2401 92.4805 14.9681 93.6325 14.9681C94.7525 14.9681 95.7205 15.2481 96.5365 15.8081C97.3525 16.3521 97.9845 17.1201 98.4325 18.1121C98.8805 19.1041 99.1045 20.2721 99.1045 21.6161H89.1925L89.6725 21.2081C89.6725 22.1681 89.8405 22.9921 90.1765 23.6801C90.5285 24.3681 91.0165 24.8961 91.6405 25.2641C92.2645 25.6161 92.9765 25.7921 93.7765 25.7921C94.6245 25.7921 95.3365 25.5921 95.9125 25.1921C96.5045 24.7921 96.9605 24.2641 97.2805 23.6081L98.9365 24.4481C98.6325 25.0721 98.2245 25.6161 97.7125 26.0801C97.2165 26.5441 96.6245 26.9041 95.9365 27.1601C95.2645 27.4161 94.5125 27.5441 93.6805 27.5441ZM89.7925 20.3921L89.2885 20.0081H97.5685L97.0645 20.4161C97.0645 19.6481 96.9125 18.9841 96.6085 18.4241C96.3045 17.8641 95.8965 17.4321 95.3845 17.1281C94.8725 16.8241 94.2805 16.6721 93.6085 16.6721C92.9525 16.6721 92.3285 16.8241 91.7365 17.1281C91.1605 17.4321 90.6885 17.8641 90.3205 18.4241C89.9685 18.9681 89.7925 19.6241 89.7925 20.3921ZM92.0245 13.5521L94.8325 10.4561H97.3045L94.2085 13.5521H92.0245Z" fill="#333333"/>
<path d="M78.9059 23.3921L77.6819 22.0721L84.0659 15.2561H86.4899L78.9059 23.3921ZM77.0339 27.2561V10.4561H78.9539V27.2561H77.0339ZM84.5939 27.2561L80.0339 20.3681L81.2819 19.0241L86.9699 27.2561H84.5939Z" fill="#333333"/>
<path d="M68.416 27.5438C67.248 27.5438 66.208 27.2798 65.296 26.7518C64.4 26.2078 63.696 25.4638 63.184 24.5198C62.672 23.5758 62.416 22.4878 62.416 21.2558C62.416 20.0238 62.664 18.9358 63.16 17.9918C63.672 17.0478 64.376 16.3118 65.272 15.7838C66.184 15.2398 67.216 14.9678 68.368 14.9678C69.552 14.9678 70.592 15.2398 71.488 15.7838C72.4 16.3118 73.104 17.0478 73.6 17.9918C74.112 18.9358 74.368 20.0238 74.368 21.2558C74.368 22.4878 74.112 23.5758 73.6 24.5198C73.104 25.4638 72.408 26.2078 71.512 26.7518C70.616 27.2798 69.584 27.5438 68.416 27.5438ZM68.416 25.7678C69.216 25.7678 69.912 25.5758 70.504 25.1918C71.096 24.8078 71.56 24.2798 71.896 23.6078C72.248 22.9358 72.424 22.1518 72.424 21.2558C72.424 20.3598 72.248 19.5758 71.896 18.9038C71.56 18.2318 71.088 17.7038 70.48 17.3198C69.872 16.9358 69.168 16.7438 68.368 16.7438C67.584 16.7438 66.888 16.9358 66.28 17.3198C65.688 17.7038 65.216 18.2318 64.864 18.9038C64.528 19.5758 64.36 20.3598 64.36 21.2558C64.36 22.1358 64.528 22.9198 64.864 23.6078C65.216 24.2798 65.696 24.8078 66.304 25.1918C66.928 25.5758 67.632 25.7678 68.416 25.7678Z" fill="#333333"/>
<path d="M50 27.2561V10.4561H55.472C56.56 10.4561 57.52 10.6801 58.352 11.1281C59.2 11.5761 59.856 12.2001 60.32 13.0001C60.8 13.8001 61.04 14.7281 61.04 15.7841C61.04 16.8081 60.824 17.7201 60.392 18.5201C59.96 19.3201 59.368 19.9521 58.616 20.4161C57.864 20.8641 56.992 21.0881 56 21.0881H52.04V27.2561H50ZM52.04 19.2401H56C56.88 19.2401 57.6 18.9201 58.16 18.2801C58.736 17.6241 59.024 16.7921 59.024 15.7841C59.024 14.7441 58.688 13.9041 58.016 13.2641C57.344 12.6241 56.488 12.3041 55.448 12.3041H52.04V19.2401Z" fill="#333333"/>
</svg>
